<svg id="Lager_1" data-name="Lager 1" xmlns="http://www.w3.org/2000/svg" viewBox="0 0 764.04 112.33"><defs><style>.cls-1{fill:#1d1d1b;}.cls-2{fill:#63c3d1;}.cls-3{fill:#006fb9;}.cls-4{fill:#bee2e9;}</style></defs><path class="cls-1" d="M50.21,105l-17.67-25v25H21.14V51.47h11.4v25l17.75-25H62.82l-19.44,26L63.86,105Z" transform="translate(-21.14 -11.41)"/><path class="cls-1" d="M90.36,105.43c-3,7.79-4.82,11.41-7.63,14.22-1.68,1.68-5.06,4.09-11.56,4.09a20.13,20.13,0,0,1-9.88-2.49l3.21-7.71a15,15,0,0,0,6.11,1.37,7.13,7.13,0,0,0,5.38-2c1.92-1.93,3.29-6.1,3.93-7.87L63.38,65.52H74.86l10.6,27.71,9.88-27.71H106Z" transform="translate(-21.14 -11.41)"/><path class="cls-1" d="M135,73.63a18.65,18.65,0,0,0-2.41-.24,13,13,0,0,0-11.08,5.7V105H110.68V65.52h9.23v5A17.49,17.49,0,0,1,133,64.4a9.19,9.19,0,0,1,4.5,1Z" transform="translate(-21.14 -11.41)"/><path class="cls-1" d="M166.33,105,152.12,86.48V105H141.28V46.89h10.84V80l14.37-14.46H179L161.51,82.87,179.18,105Z" transform="translate(-21.14 -11.41)"/><path class="cls-1" d="M203.27,105v-2.81a19.2,19.2,0,0,1-11.16,3.7c-7.87,0-12.77-5.23-12.77-12.69,0-14.06,17.19-14.3,22-14.3h1.12c0-2.41-.08-3.53-1.2-4.66-.89-.88-2.65-1.6-5.63-1.6a23.75,23.75,0,0,0-10.52,2.89l-3.61-6.91c.56-.48,5.94-4.25,15-4.25,3.37,0,9.07.56,12.93,4.41,3.29,3.3,3.21,7.39,3.21,12.53V105Zm-.8-18.71h-1.69c-7,0-12,1.2-12,6.18,0,4.1,3.45,5.22,6.1,5.22a13.15,13.15,0,0,0,7.55-2.41Z" transform="translate(-21.14 -11.41)"/><path class="cls-1" d="M243.59,105V84.23c0-5.14-.24-7.71-1.69-9.15a5.68,5.68,0,0,0-4.26-1.45,14,14,0,0,0-7.3,2.49V105H219.5V65.52h9.23v3c.64-.48,5.54-4.09,11.16-4.09a14.05,14.05,0,0,1,10.28,3.85c4.5,4.5,4.26,10.36,4.26,15.5V105Z" transform="translate(-21.14 -11.41)"/><path class="cls-1" d="M273.86,106.16a27,27,0,0,1-15.34-4.5l3.7-6.91c.8.4,5.3,3.21,10.28,3.21,4.81,0,6.1-1.92,6.1-3.85,0-2.57-2.17-3.13-8.51-5.78-3.46-1.45-9.8-3.94-9.8-11.49s6.18-12.44,15.5-12.44c8.59,0,13.09,3.53,13.09,3.53l-3.53,6.67c-.41-.25-5-2.57-9-2.57s-5.3,2-5.3,3.61c0,2.65,2.73,3.37,7.15,5.14,5.38,2.17,11.32,4.58,11.32,12.61C289.52,101.26,283.5,106.16,273.86,106.16Z" transform="translate(-21.14 -11.41)"/><path class="cls-1" d="M324.7,60.62V73.07h19.67v9H324.7v23H313.45V51.47h32v9.15Z" transform="translate(-21.14 -11.41)"/><path class="cls-1" d="M369.19,106.16c-11.65,0-19.68-8.52-19.68-20.64,0-12.29,8.43-21.12,20.48-21.12,11.64,0,19.76,8.59,19.76,20.47C389.75,97.48,381.39,106.16,369.19,106.16Zm-7.07-46.82a5.63,5.63,0,1,1,5.62-5.62A5.59,5.59,0,0,1,362.12,59.34Zm7.39,14c-5.54,0-9.16,4.74-9.16,11.81s3.94,12,9.56,12,9-4.66,9-11.8S375.05,73.31,369.51,73.31Zm8.27-14a5.63,5.63,0,1,1,5.62-5.62A5.59,5.59,0,0,1,377.78,59.34Z" transform="translate(-21.14 -11.41)"/><path class="cls-1" d="M419.78,73.63a18.83,18.83,0,0,0-2.41-.24,13,13,0,0,0-11.08,5.7V105H395.45V65.52h9.23v5a17.46,17.46,0,0,1,13.09-6.1,9.23,9.23,0,0,1,4.5,1Z" transform="translate(-21.14 -11.41)"/><path class="cls-1" d="M437.69,106.16a27,27,0,0,1-15.34-4.5l3.7-6.91c.8.4,5.3,3.21,10.27,3.21s6.11-1.92,6.11-3.85c0-2.57-2.17-3.13-8.51-5.78-3.46-1.45-9.8-3.94-9.8-11.49s6.18-12.44,15.5-12.44c8.59,0,13.09,3.53,13.09,3.53l-3.54,6.67c-.4-.25-5-2.57-9-2.57s-5.3,2-5.3,3.61c0,2.65,2.73,3.37,7.15,5.14,5.38,2.17,11.32,4.58,11.32,12.61C453.35,101.26,447.33,106.16,437.69,106.16Z" transform="translate(-21.14 -11.41)"/><path class="cls-1" d="M482.1,105v-2.81a19.24,19.24,0,0,1-11.16,3.7c-7.87,0-12.77-5.23-12.77-12.69,0-14.06,17.18-14.3,22-14.3h1.13c0-2.41-.08-3.53-1.21-4.66-.88-.88-2.65-1.6-5.62-1.6A23.7,23.7,0,0,0,464,75.56l-3.61-6.91c.56-.48,5.94-4.25,15-4.25,3.37,0,9.08.56,12.93,4.41,3.29,3.3,3.21,7.39,3.21,12.53V105ZM467.4,59.34A5.63,5.63,0,1,1,473,53.72,5.59,5.59,0,0,1,467.4,59.34Zm13.9,27h-1.69c-7,0-12,1.2-12,6.18,0,4.1,3.46,5.22,6.11,5.22a13.22,13.22,0,0,0,7.55-2.41Zm1.76-27a5.63,5.63,0,1,1,5.62-5.62A5.59,5.59,0,0,1,483.06,59.34Z" transform="translate(-21.14 -11.41)"/><path class="cls-1" d="M523.37,105,509.16,86.48V105H498.32V46.89h10.84V80l14.38-14.46h12.52l-17.5,17.35L536.22,105Z" transform="translate(-21.14 -11.41)"/><path class="cls-1" d="M564,73.63a18.83,18.83,0,0,0-2.41-.24,13,13,0,0,0-11.08,5.7V105H539.68V65.52h9.23v5A17.46,17.46,0,0,1,562,64.4a9.23,9.23,0,0,1,4.5,1Z" transform="translate(-21.14 -11.41)"/><path class="cls-1" d="M575.65,60.62a6.19,6.19,0,1,1,6.19-6.18A6.13,6.13,0,0,1,575.65,60.62ZM570.27,105V65.52h10.85V105Z" transform="translate(-21.14 -11.41)"/><path class="cls-1" d="M612.52,105V84.23c0-5.14-.25-7.71-1.69-9.15a5.68,5.68,0,0,0-4.26-1.45,14.07,14.07,0,0,0-7.31,2.49V105H588.42V65.52h9.24v3c.64-.48,5.54-4.09,11.16-4.09a14.05,14.05,0,0,1,10.28,3.85c4.5,4.5,4.26,10.36,4.26,15.5V105Z" transform="translate(-21.14 -11.41)"/><path class="cls-1" d="M661.9,118.52c-2.41,2.41-6.74,5.22-14.61,5.22-11.08,0-17.11-5.22-17.75-5.86l4.34-7.07a23.4,23.4,0,0,0,12.2,3.94c8.76,0,9.4-5.46,9.4-9.64v-2.49a16.78,16.78,0,0,1-9.24,2.41c-12,0-17.74-9.64-17.74-19.43,0-11.81,8.35-21.2,21.2-21.2a37.76,37.76,0,0,1,16.46,4.17v35.9C666.16,109.93,666.16,114.27,661.9,118.52Zm-6.42-44.25a16.38,16.38,0,0,0-5.94-1.2c-5.63,0-10.2,4.42-10.2,12,0,7.38,4.33,11.32,9.39,11.32a13.17,13.17,0,0,0,6.75-2Z" transform="translate(-21.14 -11.41)"/><path class="cls-2" d="M760.54,86V54.25a18.28,18.28,0,1,0-36.55,0V86Z" transform="translate(-21.14 -11.41)"/><rect class="cls-3" x="678.21" y="79.7" width="19.56" height="31.78"/><rect class="cls-3" x="744.48" y="79.7" width="19.56" height="31.78"/><rect class="cls-2" x="678.21" y="42.84" width="19.56" height="31.78"/><rect class="cls-2" x="744.48" y="42.84" width="19.56" height="31.78"/><path class="cls-4" d="M739.72,11.41a42.92,42.92,0,0,0-40.07,37.76h19.82A23.38,23.38,0,0,1,739.72,31Z" transform="translate(-21.14 -11.41)"/><path class="cls-4" d="M744.8,11.41V31a23.38,23.38,0,0,1,20.26,18.14h19.82A42.93,42.93,0,0,0,744.8,11.41Z" transform="translate(-21.14 -11.41)"/><rect class="cls-3" x="702.85" y="79.7" width="36.55" height="31.78"/></svg>